G04 ================== begin FILE IDENTIFICATION RECORD ==================*
G04 Layout Name:  C:/Users/user/Desktop/ex/ex2_rlc/allegro/ex2_rlc.brd*
G04 Film Name:    Silkb*
G04 File Format:  Gerber RS274X*
G04 File Origin:  Cadence Allegro 17.2-S038*
G04 Origin Date:  Thu Jul 11 11:35:47 2019*
G04 *
G04 Layer:  REF DES/SILKSCREEN_BOTTOM*
G04 Layer:  PACKAGE GEOMETRY/SILKSCREEN_BOTTOM*
G04 Layer:  BOARD GEOMETRY/SILKSCREEN_BOTTOM*
G04 *
G04 Offset:    (0.000 0.000)*
G04 Mirror:    No*
G04 Mode:      Positive*
G04 Rotation:  0*
G04 FullContactRelief:  No*
G04 UndefLineWidth:     0.200*
G04 ================== end FILE IDENTIFICATION RECORD ====================*
%FSLAX25Y25*MOMM*%
%IR0*IPPOS*OFA0.00000B0.00000*MIA0B0*SFA1.00000B1.00000*%
%ADD10C,.2*%
G75*
%LPD*%
G75*
G54D10*
G01X8325900Y6275900D02*
X8330000Y6282300D01*
X8334700Y6285400D01*
X8340200Y6286500D01*
X8346900Y6284400D01*
X8351700Y6279100D01*
X8353000Y6272700D01*
X8352300Y6266400D01*
X8349600Y6261100D01*
X8336100Y6250500D01*
X8330000Y6243100D01*
X8325900Y6232500D01*
X8324600Y6223000D01*
X8353000D01*
G01X8394600Y6286500D02*
X8389200Y6284400D01*
X8385100Y6279100D01*
X8382400Y6272700D01*
X8380400Y6264300D01*
X8379700Y6254700D01*
X8380400Y6245200D01*
X8382400Y6236800D01*
X8385100Y6230400D01*
X8389200Y6225100D01*
X8394600Y6223000D01*
X8400000Y6225100D01*
X8404100Y6230400D01*
X8406800Y6236800D01*
X8408800Y6245200D01*
X8409500Y6254700D01*
X8408800Y6264300D01*
X8406800Y6272700D01*
X8404100Y6279100D01*
X8400000Y6284400D01*
X8394600Y6286500D01*
G01X8450400Y6223000D02*
Y6286500D01*
X8442300Y6273800D01*
G01Y6223000D02*
X8458500D01*
G01X8494700Y6230400D02*
X8499400Y6225100D01*
X8504800Y6223000D01*
X8510300Y6225100D01*
X8515000Y6231500D01*
X8518400Y6241000D01*
X8519700Y6250500D01*
Y6262200D01*
X8518400Y6271700D01*
X8515000Y6280100D01*
X8510900Y6284400D01*
X8506200Y6286500D01*
X8500800Y6284400D01*
X8496700Y6280100D01*
X8494000Y6273800D01*
X8492700Y6265300D01*
X8494000Y6257900D01*
X8497400Y6250500D01*
X8501500Y6246300D01*
X8506200Y6245200D01*
X8511600Y6247300D01*
X8515700Y6252600D01*
X8519700Y6262200D01*
G01X8562000Y6220900D02*
X8560600Y6221900D01*
Y6224100D01*
X8562000Y6225100D01*
X8563400Y6224100D01*
Y6221900D01*
X8562000Y6220900D01*
G01X8617800Y6286500D02*
X8612400Y6284400D01*
X8608300Y6279100D01*
X8605600Y6272700D01*
X8603600Y6264300D01*
X8602900Y6254700D01*
X8603600Y6245200D01*
X8605600Y6236800D01*
X8608300Y6230400D01*
X8612400Y6225100D01*
X8617800Y6223000D01*
X8623200Y6225100D01*
X8627300Y6230400D01*
X8630000Y6236800D01*
X8632000Y6245200D01*
X8632700Y6254700D01*
X8632000Y6264300D01*
X8630000Y6272700D01*
X8627300Y6279100D01*
X8623200Y6284400D01*
X8617800Y6286500D01*
G01X8672200Y6223000D02*
X8673600Y6236800D01*
X8675600Y6248400D01*
X8678300Y6259000D01*
X8681700Y6270600D01*
X8687100Y6286500D01*
X8660100D01*
G01X8729400Y6220900D02*
X8728000Y6221900D01*
Y6224100D01*
X8729400Y6225100D01*
X8730800Y6224100D01*
Y6221900D01*
X8729400Y6220900D01*
G01X8785200Y6223000D02*
Y6286500D01*
X8777100Y6273800D01*
G01Y6223000D02*
X8793300D01*
G01X8841000D02*
Y6286500D01*
X8832900Y6273800D01*
G01Y6223000D02*
X8849100D01*
M02*
