G04 ================== begin FILE IDENTIFICATION RECORD ==================*
G04 Layout Name:  C:/Users/user/Desktop/ex/ex2_rlc/allegro/ex2_rlc.brd*
G04 Film Name:    Silkt*
G04 File Format:  Gerber RS274X*
G04 File Origin:  Cadence Allegro 17.2-S038*
G04 Origin Date:  Thu Jul 11 11:35:47 2019*
G04 *
G04 Layer:  REF DES/SILKSCREEN_TOP*
G04 Layer:  PACKAGE GEOMETRY/SILKSCREEN_TOP*
G04 Layer:  BOARD GEOMETRY/SILKSCREEN_TOP*
G04 *
G04 Offset:    (0.000 0.000)*
G04 Mirror:    No*
G04 Mode:      Positive*
G04 Rotation:  0*
G04 FullContactRelief:  No*
G04 UndefLineWidth:     0.200*
G04 ================== end FILE IDENTIFICATION RECORD ====================*
%FSLAX25Y25*MOMM*%
%IR0*IPPOS*OFA0.00000B0.00000*MIA0B0*SFA1.00000B1.00000*%
%ADD10C,.2*%
G75*
%LPD*%
G75*
G54D10*
G01X977900Y2222500D02*
X1689100D01*
Y1968500D01*
X977900D01*
Y2222500D01*
G01X1209500Y3083100D02*
X1204600Y3090900D01*
X1198800Y3096200D01*
X1191900Y3098800D01*
X1184200Y3096200D01*
X1178300Y3090900D01*
X1172500Y3083100D01*
X1170500Y3072600D01*
Y3020100D01*
G01X1111300Y3098800D02*
Y3020100D01*
X1123000Y3035800D01*
G01Y3098800D02*
X1099600D01*
G01X1206500Y3365500D02*
Y3111500D01*
X698500D01*
Y3365500D01*
X1206500D01*
G01X1447800Y1946100D02*
X1526500D01*
Y1921700D01*
X1522600Y1913900D01*
X1517300Y1909100D01*
X1506800Y1907100D01*
X1496300Y1909100D01*
X1489800Y1914900D01*
X1485800Y1921700D01*
Y1946100D01*
G01Y1921700D02*
X1447800Y1907100D01*
G01Y1847900D02*
X1526500D01*
X1510800Y1859600D01*
G01X1447800D02*
Y1836200D01*
G01X3281200Y2275800D02*
Y2197100D01*
X3320200D01*
G01X3379400D02*
Y2275800D01*
X3367700Y2260100D01*
G01Y2197100D02*
X3391100D01*
G01X3390900Y2006600D02*
Y2184400D01*
X3594100D01*
Y2006600D01*
X3390900D01*
G01X4826000Y2311400D02*
Y3022600D01*
X5080000D01*
Y2311400D01*
X4826000D01*
G01X5558600Y3012000D02*
X5549000Y3018400D01*
X5537700Y3022600D01*
X5524900D01*
X5510400Y3016200D01*
X5499100Y3005700D01*
X5491100Y2993000D01*
X5484600Y2971800D01*
X5483000Y2952700D01*
X5486300Y2933700D01*
X5491100Y2921000D01*
X5500700Y2908300D01*
X5512000Y2899800D01*
X5523200Y2895600D01*
X5534500D01*
X5545800Y2899800D01*
X5555400Y2906200D01*
X5563500Y2914600D01*
G01X5652700Y2895600D02*
Y3022600D01*
X5633400Y2997200D01*
G01Y2895600D02*
X5672000D01*
G01X5102400Y2781300D02*
Y2860000D01*
X5126800D01*
X5134600Y2856100D01*
X5139400Y2850800D01*
X5141400Y2840300D01*
X5139400Y2829800D01*
X5133600Y2823300D01*
X5126800Y2819300D01*
X5102400D01*
G01X5126800D02*
X5141400Y2781300D01*
G01X5182100Y2846900D02*
X5187900Y2854800D01*
X5194800Y2858700D01*
X5202500Y2860000D01*
X5212300Y2857400D01*
X5219100Y2850800D01*
X5221000Y2842900D01*
X5220100Y2835100D01*
X5216200Y2828500D01*
X5196700Y2815400D01*
X5187900Y2806200D01*
X5182100Y2793100D01*
X5180200Y2781300D01*
X5221000D01*
G01X6350000Y2667000D02*
G03I-254000J0D01*
M02*
